{
  "source": "C:\\Users\\Peter\\Desktop\\stuff\\MIUN\\quantitative_research\\video_compression\\videos\\BVI-HD\\BVI-HD_CDVL_videos\\ORIG\\SmokeGuns_1920x1080_60fps.mp4",
  "output": "C:\\Users\\Peter\\Desktop\\stuff\\MIUN\\quantitative_research\\video_compression\\compressed_videos\\BVI-HD\\av1\\4\\SmokeGuns_1920x1080_60fps_av1.mkv",
  "codec": "av1",
  "ok": "Input #0, mov,mp4,m4a,3gp,3g2,mj2, from 'C:\\Users\\Peter\\Desktop\\stuff\\MIUN\\quantitative_research\\video_compression\\videos\\BVI-HD\\BVI-HD_CDVL_videos\\ORIG\\SmokeGuns_1920x1080_60fps.mp4':\n  Metadata:\n    major_brand     : isom\n    minor_version   : 512\n    compatible_brands: isomiso2avc1mp41\n    encoder         : Lavf54.28.101\n  Duration: 00:00:05.00, start: 0.000000, bitrate: 384353 kb/s\n  Stream #0:0[0x1](und): Video: h264 (High 4:4:4 Predictive) (avc1 / 0x31637661), yuv420p(progressive), 1920x1080, 384348 kb/s, 60 fps, 60 tbr, 60 tbn (default)\n    Metadata:\n      handler_name    : VideoHandler\n      vendor_id       : [0][0][0][0]\n[out#0/matroska @ 000001f6455696c0] Codec AVOption b:a (set bitrate (in bits/s)) has not been used for any stream. The most likely reason is either wrong type (e.g. a video option with no video streams) or that it is a private option of some decoder which was not actually used for any stream.\nStream mapping:\n  Stream #0:0 -> #0:0 (h264 (native) -> av1 (libsvtav1))\nPress [q] to stop, [?] for help\nSvt[info]: -------------------------------------------\nSvt[info]: SVT [version]:\tSVT-AV1 Encoder Lib v3.1.0-19-g6ecfe8ec\nSvt[info]: SVT [build]  :\tGCC 15.2.0\t 64 bit\nSvt[info]: LIB Build date: Aug 17 2025 11:37:13\nSvt[info]: -------------------------------------------\nSvt[info]: Level of Parallelism: 5\nSvt[info]: Number of PPCS 93\nSvt[info]: [asm level on system : up to avx2]\nSvt[info]: [asm level selected : up to avx2]\nSvt[info]: -------------------------------------------\nSvt[info]: SVT [config]: main profile\ttier (auto)\tlevel (auto)\nSvt[info]: SVT [config]: width / height / fps numerator / fps denominator \t\t: 1920 / 1080 / 60 / 1\nSvt[info]: SVT [config]: bit-depth / color format \t\t\t\t\t: 8 / YUV420\nSvt[info]: SVT [config]: preset / tune / pred struct \t\t\t\t\t: 4 / PSNR / random access\nSvt[info]: SVT [config]: gop size / mini-gop size / key-frame type \t\t\t: 321 / 16 / key frame\nSvt[info]: SVT [config]: BRC mode / target bitrate (kbps)\t\t\t\t: VBR / 4000 \nSvt[info]: SVT [config]: AQ mode / Variance Boost \t\t\t\t\t: 2 / 0\nSvt[info]: SVT [config]: sharpness / luminance-based QP bias \t\t\t\t: 0 / 0\nSvt[info]: SVT [config]: QP scale compress strength \t\t\t\t\t: 0\nSvt[info]: -------------------------------------------\nOutput #0, matroska, to 'C:\\Users\\Peter\\Desktop\\stuff\\MIUN\\quantitative_research\\video_compression\\compressed_videos\\BVI-HD\\av1\\4\\SmokeGuns_1920x1080_60fps_av1.mkv':\n  Metadata:\n    major_brand     : isom\n    minor_version   : 512\n    compatible_brands: isomiso2avc1mp41\n    encoder         : Lavf62.3.100\n  Stream #0:0(und): Video: av1 (AV01 / 0x31305641), yuv420p(tv, progressive), 1920x1080, q=2-31, 4000 kb/s, 60 fps, 1k tbn (default)\n    Metadata:\n      encoder         : Lavc62.11.100 libsvtav1\n      handler_name    : VideoHandler\n      vendor_id       : [0][0][0][0]\n    Side data:\n      cpb: bitrate max/min/avg: 0/0/4000000 buffer size: 4000000 vbv_delay: N/A\nframe=    0 fps=0.0 q=0.0 size=       0KiB time=N/A bitrate=N/A speed=N/A elapsed=0:00:01.06    \nframe=    0 fps=0.0 q=0.0 size=       0KiB time=N/A bitrate=N/A speed=N/A elapsed=0:00:01.65    \nframe=    0 fps=0.0 q=0.0 size=       0KiB time=N/A bitrate=N/A speed=N/A elapsed=0:00:02.20    \nframe=    0 fps=0.0 q=0.0 size=       0KiB time=N/A bitrate=N/A speed=N/A elapsed=0:00:02.72    \nframe=    0 fps=0.0 q=0.0 size=       0KiB time=N/A bitrate=N/A speed=N/A elapsed=0:00:03.27    \nframe=    0 fps=0.0 q=0.0 size=       0KiB time=N/A bitrate=N/A speed=N/A elapsed=0:00:03.81    \nframe=    1 fps=0.2 q=11.0 size=       1KiB time=00:00:00.00 bitrate=N/A speed=   0x elapsed=0:00:04.35    \nframe=    1 fps=0.2 q=11.0 size=       1KiB time=00:00:00.00 bitrate=N/A speed=   0x elapsed=0:00:04.92    \nframe=    1 fps=0.2 q=11.0 size=       1KiB time=00:00:00.00 bitrate=N/A speed=   0x elapsed=0:00:05.45    \nframe=    1 fps=0.2 q=11.0 size=       1KiB time=00:00:00.00 bitrate=N/A speed=   0x elapsed=0:00:06.03    \nframe=    3 fps=0.5 q=35.0 size=       1KiB time=00:00:00.03 bitrate= 170.9kbits/s speed=0.005x elapsed=0:00:06.66    \nframe=    6 fps=0.8 q=35.0 size=       1KiB time=00:00:00.08 bitrate=  68.4kbits/s speed=0.0115x elapsed=0:00:07.26    \nframe=    9 fps=1.1 q=30.0 size=       1KiB time=00:00:00.11 bitrate=  48.8kbits/s speed=0.0148x elapsed=0:00:07.85    \nframe=   13 fps=1.5 q=33.0 size=       1KiB time=00:00:00.20 bitrate=  28.5kbits/s speed=0.0235x elapsed=0:00:08.49    \nframe=   16 fps=1.8 q=32.0 size=       1KiB time=00:00:00.25 bitrate=  22.8kbits/s speed=0.0275x elapsed=0:00:09.08    \nframe=   19 fps=2.0 q=34.0 size=       1KiB time=00:00:00.30 bitrate=  19.0kbits/s speed=0.0309x elapsed=0:00:09.71    \nframe=   22 fps=2.1 q=30.0 size=       1KiB time=00:00:00.35 bitrate=  16.3kbits/s speed=0.034x elapsed=0:00:10.28    \nframe=   25 fps=2.3 q=30.0 size=       1KiB time=00:00:00.38 bitrate=  14.9kbits/s speed=0.0354x elapsed=0:00:10.81    \nframe=   28 fps=2.4 q=29.0 size=       1KiB time=00:00:00.45 bitrate=  12.7kbits/s speed=0.0393x elapsed=0:00:11.45    \nframe=   32 fps=2.7 q=30.0 size=       1KiB time=00:00:00.50 bitrate=  11.4kbits/s speed=0.0417x elapsed=0:00:11.99    \nframe=   35 fps=2.8 q=32.0 size=       1KiB time=00:00:00.56 bitrate=  10.1kbits/s speed=0.0451x elapsed=0:00:12.57    \nframe=   37 fps=2.8 q=33.0 size=       1KiB time=00:00:00.60 bitrate=   9.5kbits/s speed=0.0455x elapsed=0:00:13.17    \nframe=   40 fps=2.9 q=27.0 size=       1KiB time=00:00:00.65 bitrate=   8.8kbits/s speed=0.0471x elapsed=0:00:13.80    \nframe=   43 fps=3.0 q=30.0 size=       1KiB time=00:00:00.70 bitrate=   8.1kbits/s speed=0.0486x elapsed=0:00:14.40    \nframe=   48 fps=3.2 q=30.0 size=       1KiB time=00:00:00.75 bitrate=   7.6kbits/s speed=0.0501x elapsed=0:00:14.98    \nframe=   50 fps=3.2 q=29.0 size=       1KiB time=00:00:00.81 bitrate=   7.0kbits/s speed=0.0525x elapsed=0:00:15.55    \nframe=   52 fps=3.2 q=23.0 size=       1KiB time=00:00:00.85 bitrate=   6.7kbits/s speed=0.0526x elapsed=0:00:16.14    \nframe=   56 fps=3.3 q=27.0 size=       1KiB time=00:00:00.91 bitrate=   6.2kbits/s speed=0.0548x elapsed=0:00:16.72    \nframe=   60 fps=3.5 q=27.0 size=       1KiB time=00:00:00.98 bitrate=   5.8kbits/s speed=0.0568x elapsed=0:00:17.30    \nframe=   62 fps=3.5 q=26.0 size=       1KiB time=00:00:01.01 bitrate=   5.6kbits/s speed=0.057x elapsed=0:00:17.84    \nframe=   66 fps=3.6 q=28.0 size=       1KiB time=00:00:01.08 bitrate=   5.3kbits/s speed=0.059x elapsed=0:00:18.37    \nframe=   71 fps=3.8 q=31.0 size=       1KiB time=00:00:01.16 bitrate=   4.9kbits/s speed=0.0617x elapsed=0:00:18.90    \nframe=   73 fps=3.8 q=28.0 size=       1KiB time=00:00:01.20 bitrate=   4.7kbits/s speed=0.0617x elapsed=0:00:19.43    \nframe=   78 fps=3.9 q=27.0 size=       1KiB time=00:00:01.28 bitrate=   4.4kbits/s speed=0.0643x elapsed=0:00:19.95    \nframe=   82 fps=4.0 q=27.0 size=       1KiB time=00:00:01.35 bitrate=   4.2kbits/s speed=0.0659x elapsed=0:00:20.49    \nframe=   87 fps=4.1 q=32.0 size=       1KiB time=00:00:01.43 bitrate=   4.0kbits/s speed=0.0682x elapsed=0:00:21.01    \nframe=   89 fps=4.1 q=27.0 size=       1KiB time=00:00:01.46 bitrate=   3.9kbits/s speed=0.0681x elapsed=0:00:21.53    \nframe=   95 fps=4.3 q=32.0 size=       1KiB time=00:00:01.56 bitrate=   3.6kbits/s speed=0.071x elapsed=0:00:22.07    \nframe=   99 fps=4.4 q=32.0 size=       1KiB time=00:00:01.63 bitrate=   3.5kbits/s speed=0.0722x elapsed=0:00:22.63    \nframe=  104 fps=4.5 q=30.0 size=       1KiB time=00:00:01.71 bitrate=   3.3kbits/s speed=0.0741x elapsed=0:00:23.18    \nframe=  109 fps=4.6 q=33.0 size=       1KiB time=00:00:01.80 bitrate=   3.2kbits/s speed=0.0759x elapsed=0:00:23.71    \nframe=  114 fps=4.7 q=30.0 size=       1KiB time=00:00:01.88 bitrate=   3.0kbits/s speed=0.0776x elapsed=0:00:24.26    \nframe=  119 fps=4.8 q=33.0 size=       1KiB time=00:00:01.96 bitrate=   2.9kbits/s speed=0.0794x elapsed=0:00:24.78    \nframe=  124 fps=4.9 q=30.0 size=       1KiB time=00:00:02.05 bitrate=   2.8kbits/s speed=0.081x elapsed=0:00:25.31    \nframe=  129 fps=5.0 q=10.0 size=       1KiB time=00:00:02.13 bitrate=   2.7kbits/s speed=0.0825x elapsed=0:00:25.84    \nframe=  135 fps=5.1 q=32.0 size=       1KiB time=00:00:02.23 bitrate=   2.6kbits/s speed=0.0847x elapsed=0:00:26.37    \nframe=  140 fps=5.2 q=30.0 size=       1KiB time=00:00:02.31 bitrate=   2.5kbits/s speed=0.0861x elapsed=0:00:26.92    \nframe=  144 fps=5.2 q=30.0 size=       1KiB time=00:00:02.38 bitrate=   2.4kbits/s speed=0.0868x elapsed=0:00:27.44    \nframe=  150 fps=5.4 q=30.0 size=       1KiB time=00:00:02.48 bitrate=   2.3kbits/s speed=0.0888x elapsed=0:00:27.97    \nframe=  154 fps=5.4 q=30.0 size=       1KiB time=00:00:02.55 bitrate=   2.2kbits/s speed=0.0895x elapsed=0:00:28.49    \nframe=  161 fps=5.5 q=13.0 size=       1KiB time=00:00:02.65 bitrate=   2.1kbits/s speed=0.0913x elapsed=0:00:29.01    \nframe=  164 fps=5.5 q=29.0 size=       1KiB time=00:00:02.71 bitrate=   2.1kbits/s speed=0.0918x elapsed=0:00:29.58    \nframe=  169 fps=5.6 q=26.0 size=       1KiB time=00:00:02.80 bitrate=   2.0kbits/s speed=0.093x elapsed=0:00:30.10    \nframe=  176 fps=5.7 q=30.0 size=       1KiB time=00:00:02.90 bitrate=   2.0kbits/s speed=0.0947x elapsed=0:00:30.63    \nframe=  180 fps=5.8 q=30.0 size=       1KiB time=00:00:02.98 bitrate=   1.9kbits/s speed=0.0957x elapsed=0:00:31.18    \nframe=  184 fps=5.8 q=30.0 size=       1KiB time=00:00:03.05 bitrate=   1.9kbits/s speed=0.0962x elapsed=0:00:31.70    \nframe=  190 fps=5.9 q=29.0 size=       1KiB time=00:00:03.15 bitrate=   1.8kbits/s speed=0.0978x elapsed=0:00:32.22    \nframe=  195 fps=6.0 q=31.0 size=       1KiB time=00:00:03.23 bitrate=   1.8kbits/s speed=0.0987x elapsed=0:00:32.75    \nframe=  200 fps=6.0 q=29.0 size=       1KiB time=00:00:03.31 bitrate=   1.7kbits/s speed=0.0996x elapsed=0:00:33.28    \nframe=  207 fps=6.1 q=31.0 size=       1KiB time=00:00:03.43 bitrate=   1.7kbits/s speed=0.102x elapsed=0:00:33.80    \nframe=  213 fps=6.2 q=31.0 size=       1KiB time=00:00:03.53 bitrate=   1.6kbits/s speed=0.103x elapsed=0:00:34.33    \nframe=  217 fps=6.2 q=25.0 size=       1KiB time=00:00:03.60 bitrate=   1.6kbits/s speed=0.103x elapsed=0:00:34.85    \nframe=  225 fps=6.4 q=10.0 size=       1KiB time=00:00:03.73 bitrate=   1.5kbits/s speed=0.105x elapsed=0:00:35.39    \nframe=  229 fps=6.4 q=32.0 size=       1KiB time=00:00:03.80 bitrate=   1.5kbits/s speed=0.106x elapsed=0:00:35.93    \nframe=  235 fps=6.4 q=29.0 size=       1KiB time=00:00:03.90 bitrate=   1.5kbits/s speed=0.107x elapsed=0:00:36.49    \nframe=  241 fps=6.5 q=10.0 size=       1KiB time=00:00:04.00 bitrate=   1.4kbits/s speed=0.108x elapsed=0:00:37.02    \nframe=  249 fps=6.6 q=25.0 size=       1KiB time=00:00:04.13 bitrate=   1.4kbits/s speed=0.11x elapsed=0:00:37.56    \nframe=  257 fps=6.7 q=10.0 size=       1KiB time=00:00:04.26 bitrate=   1.3kbits/s speed=0.112x elapsed=0:00:38.08    \nframe=  261 fps=6.8 q=31.0 size=       1KiB time=00:00:04.33 bitrate=   1.3kbits/s speed=0.112x elapsed=0:00:38.60    \nframe=  265 fps=6.8 q=25.0 size=       1KiB time=00:00:04.40 bitrate=   1.3kbits/s speed=0.112x elapsed=0:00:39.13    \nframe=  271 fps=6.8 q=23.0 size=       1KiB time=00:00:04.50 bitrate=   1.3kbits/s speed=0.113x elapsed=0:00:39.66    \nframe=  275 fps=6.8 q=28.0 size=       1KiB time=00:00:04.56 bitrate=   1.2kbits/s speed=0.114x elapsed=0:00:40.20    \nframe=  281 fps=6.9 q=24.0 size=       1KiB time=00:00:04.66 bitrate=   1.2kbits/s speed=0.115x elapsed=0:00:40.73    \nframe=  287 fps=7.0 q=29.0 size=       1KiB time=00:00:04.76 bitrate=   1.2kbits/s speed=0.116x elapsed=0:00:41.25    \n[out#0/matroska @ 000001f6455696c0] video:2399KiB audio:0KiB subtitle:0KiB other streams:0KiB global headers:0KiB muxing overhead: 0.086823%\nframe=  300 fps=7.2 q=37.0 Lsize=    2401KiB time=00:00:04.98 bitrate=3947.3kbits/s speed=0.12x elapsed=0:00:41.42    \n",
  "seconds": 41.91950845718384,
  "probe_out": {}
}